<svg width="60" height="60" viewBox="0 0 60 60" fill="none" xmlns="http://www.w3.org/2000/svg">
<rect x="0.375" y="0.375" width="59.25" height="59.25" rx="29.625" fill="#EFF6FF"/>
<rect x="0.375" y="0.375" width="59.25" height="59.25" rx="29.625" stroke="url(#paint0_linear_1092_9292)" stroke-width="0.75"/>
<path d="M29.5283 16.8499C29.7686 16.5444 30.2314 16.5444 30.4717 16.8499L32.9128 19.9546C33.0631 20.1459 33.314 20.2274 33.548 20.1611L37.3478 19.0841C37.7218 18.9781 38.0963 19.2502 38.111 19.6386L38.261 23.5852C38.2702 23.8283 38.4253 24.0417 38.6536 24.1256L42.3607 25.4878C42.7255 25.6219 42.8686 26.0621 42.6522 26.385L40.4538 29.666C40.3184 29.8681 40.3184 30.1319 40.4538 30.334L42.6522 33.615C42.8686 33.9379 42.7255 34.3781 42.3607 34.5122L38.6536 35.8744C38.4253 35.9583 38.2702 36.1717 38.261 36.4148L38.111 40.3614C38.0963 40.7498 37.7218 41.0219 37.3478 40.9159L33.548 39.8389C33.314 39.7726 33.0631 39.8541 32.9128 40.0454L30.4717 43.1501C30.2314 43.4556 29.7686 43.4556 29.5283 43.1501L27.0872 40.0454C26.9369 39.8541 26.686 39.7726 26.452 39.8389L22.6522 40.9159C22.2782 41.0219 21.9037 40.7498 21.889 40.3614L21.739 36.4148C21.7298 36.1717 21.5747 35.9583 21.3464 35.8744L17.6393 34.5122C17.2745 34.3781 17.1314 33.9379 17.3478 33.615L19.5462 30.334C19.6816 30.1319 19.6816 29.8681 19.5462 29.666L17.3478 26.385C17.1314 26.0621 17.2745 25.6219 17.6393 25.4878L21.3464 24.1256C21.5747 24.0417 21.7298 23.8283 21.739 23.5852L21.889 19.6386C21.9037 19.2502 22.2782 18.9781 22.6522 19.0841L26.452 20.1611C26.686 20.2274 26.9369 20.1459 27.0872 19.9547L29.5283 16.8499Z" stroke="#07358B" stroke-width="1.5"/>
<path d="M26.25 30L28.75 32.5L33.75 27.5" stroke="#07358B" stroke-width="1.5" stroke-linecap="round" stroke-linejoin="round"/>
<defs>
<linearGradient id="paint0_linear_1092_9292" x1="30" y1="0" x2="30" y2="60" gradientUnits="userSpaceOnUse">
<stop stop-color="#0561E8"/>
<stop offset="1" stop-color="#63C0F2"/>
</linearGradient>
</defs>
</svg>
